<svg width="362" height="207" viewBox="0 0 362 207" fill="none" xmlns="http://www.w3.org/2000/svg">
<path d="M262 0C317.228 0 362 46.3385 362 103.5C362 160.661 317.228 207 262 207C206.772 207 162 160.661 162 103.5C162 46.3385 206.772 0 262 0ZM291.511 48.5L254.012 49L253.717 49.0039L253.577 49.2637L220.578 110.763C219.977 111.879 219.344 113.617 219.534 115.125C219.632 115.899 219.951 116.64 220.626 117.18C221.294 117.714 222.248 118 223.518 118H256.261L237.558 161.804L237.546 161.832L237.537 161.862C237.277 162.774 237.097 163.846 237.13 164.871C237.163 165.889 237.409 166.922 238.062 167.688C238.736 168.475 239.771 168.897 241.197 168.813C242.604 168.731 244.421 168.158 246.749 166.943L246.834 166.899L246.896 166.826L302.896 101.826L302.937 101.779L302.965 101.724C303.499 100.655 303.944 98.9468 303.473 97.3115C302.986 95.6234 301.562 94.1408 298.622 93.5107L298.57 93.5H268.972L295.429 55.2842L295.474 55.2197L295.496 55.1436C295.768 54.238 295.909 52.823 295.425 51.5029C294.926 50.144 293.782 48.9431 291.615 48.5098L291.563 48.499L291.511 48.5Z" fill="#26A8F9"/>
<path d="M100 0C126.754 0 151.055 10.8739 169 28.585C160.173 37.2963 152.885 47.6622 147.598 59.2012C136.276 49.1453 121.135 43 104.5 43C69.4299 43 41 70.3106 41 104C41 137.689 69.4299 165 104.5 165C121.296 165 136.568 158.735 147.924 148.506C153.183 159.761 160.354 169.881 169 178.414C151.055 196.125 126.754 207 100 207C44.7715 207 0 160.661 0 103.5C0 46.3385 44.7715 0 100 0Z" fill="#21518F"/>
</svg>
